<?xml version="1.0" encoding="utf-8"?>
<!-- Generator: Adobe Illustrator 25.0.0, SVG Export Plug-In . SVG Version: 6.00 Build 0)  -->
<svg version="1.1" id="图层_1" xmlns="http://www.w3.org/2000/svg" xmlns:xlink="http://www.w3.org/1999/xlink" x="0px" y="0px"
	 viewBox="0 0 771 401" style="enable-background:new 0 0 771 401;" xml:space="preserve">
<style type="text/css">
	.st0{fill:none;}
	.st1{fill:#FFFFFF;stroke:#000000;}
	.st2{font-family:'ArialMT';}
	.st3{font-size:12px;}
	.st4{fill:none;stroke:#000000;stroke-miterlimit:10;}
	.st5{stroke:#000000;stroke-miterlimit:10;}
</style>
<path class="st0" d="z"/>
<g>
	<ellipse pointer-events="all" class="st1" cx="75.5" cy="75.5" rx="25" ry="25"/>
	<g transform="translate(-0.5 -0.5)">
		<text transform="matrix(1 0 0 1 72.1631 79.5)" class="st2 st3">1</text>
	</g>
	<ellipse pointer-events="all" class="st1" cx="261.5" cy="75.5" rx="25" ry="25"/>
	<g transform="translate(-0.5 -0.5)">
		<text transform="matrix(1 0 0 1 258.1631 79.5)" class="st2 st3">2</text>
	</g>
	<ellipse pointer-events="all" class="st1" cx="446.5" cy="75.5" rx="25" ry="25"/>
	<g transform="translate(-0.5 -0.5)">
		<text transform="matrix(1 0 0 1 443.1631 79.5)" class="st2 st3">3</text>
	</g>
	<ellipse pointer-events="all" class="st1" cx="632.5" cy="75.5" rx="25" ry="25"/>
	<g transform="translate(-0.5 -0.5)">
		<text transform="matrix(1 0 0 1 629.1631 79.5)" class="st2 st3">4</text>
	</g>
	<ellipse pointer-events="all" class="st1" cx="725.5" cy="75.5" rx="25" ry="25"/>
	<g transform="translate(-0.5 -0.5)">
		<text transform="matrix(1 0 0 1 722.1631 79.5)" class="st2 st3">5</text>
	</g>
	<ellipse pointer-events="all" class="st1" cx="539.5" cy="75.5" rx="25" ry="25"/>
	<g transform="translate(-0.5 -0.5)">
		<text transform="matrix(1 0 0 1 536.1631 79.5)" class="st2 st3">6</text>
	</g>
	<ellipse pointer-events="all" class="st1" cx="354.5" cy="75.5" rx="25" ry="25"/>
	<g transform="translate(-0.5 -0.5)">
		<text transform="matrix(1 0 0 1 351.1631 79.5)" class="st2 st3">7</text>
	</g>
	<ellipse pointer-events="all" class="st1" cx="168.5" cy="75.5" rx="25" ry="25"/>
	<g transform="translate(-0.5 -0.5)">
		<text transform="matrix(1 0 0 1 165.1631 79.5)" class="st2 st3">8</text>
	</g>
	<ellipse pointer-events="all" class="st1" cx="125.5" cy="175.5" rx="25" ry="25"/>
	<ellipse pointer-events="all" class="st1" cx="682.5" cy="175.5" rx="25" ry="25"/>
	<ellipse pointer-events="all" class="st1" cx="311.5" cy="175.5" rx="25" ry="25"/>
	<ellipse pointer-events="all" class="st1" cx="496.5" cy="175.5" rx="25" ry="25"/>
	<ellipse pointer-events="all" class="st1" cx="218.5" cy="265.5" rx="25" ry="25"/>
	<ellipse pointer-events="all" class="st1" cx="596.5" cy="265.5" rx="25" ry="25"/>
	<ellipse pointer-events="all" class="st1" cx="415.5" cy="375.5" rx="25" ry="25"/>
	<path pointer-events="stroke" class="st4" d="M75.5,100.5l42.7,46.6"/>
	<path pointer-events="all" class="st5" d="M121.7,150.9l-7.3-2.8l3.8-1.1l1.4-3.7L121.7,150.9z"/>
	<path pointer-events="stroke" class="st4" d="M168.5,100.5l-35,44"/>
	<path pointer-events="all" class="st5" d="M130.2,148.6l1.6-7.7l1.6,3.6l3.8,0.8L130.2,148.6z"/>
	<rect x="9.6" y="175.5" pointer-events="all" class="st0" width="95.3" height="30.9"/>
	<text transform="matrix(1 0 0 1 31.5549 185.798)"><tspan x="0" y="0" class="st2 st3">Gewinner </tspan><tspan x="-20.7" y="14.4" class="st2 st3">zwischen 1 und 8</tspan></text>
	<g transform="translate(-0.5 -0.5)">
	</g>
	<path pointer-events="stroke" class="st4" d="M349.9,100.5l-35.4,45"/>
	<path pointer-events="all" class="st5" d="M311.2,149.6l1.6-7.7l1.7,3.5l3.8,0.8L311.2,149.6z"/>
	<path pointer-events="stroke" class="st4" d="M260.5,100.5L306,146"/>
	<path pointer-events="all" class="st5" d="M309.7,149.7l-7.4-2.5l3.7-1.2l1.2-3.7L309.7,149.7z"/>
	<path pointer-events="stroke" class="st4" d="M450.5,100.5l36.7,44.4"/>
	<path pointer-events="all" class="st5" d="M490.6,148.9l-7.2-3.2l3.8-0.9l1.6-3.6L490.6,148.9z"/>
	<path pointer-events="stroke" class="st4" d="M539.5,100.5L508,146.3"/>
	<path pointer-events="all" class="st5" d="M505,150.6l1.1-7.8l1.9,3.4l3.9,0.5L505,150.6z"/>
	<path pointer-events="stroke" class="st4" d="M632.5,100.5l36,47.8"/>
	<path pointer-events="all" class="st5" d="M671.7,152.5l-7-3.5l3.9-0.7l1.7-3.5L671.7,152.5z"/>
	<path pointer-events="stroke" class="st4" d="M725.5,100.5l-30,47.8"/>
	<path pointer-events="all" class="st5" d="M692.7,152.7l0.8-7.8l2,3.3l3.9,0.4L692.7,152.7z"/>
	<rect x="186.5" y="165.5" pointer-events="all" class="st0" width="100" height="20"/>
	<rect x="371.5" y="165.5" pointer-events="all" class="st0" width="100" height="20"/>
	<rect x="560.5" y="165.5" pointer-events="all" class="st0" width="100" height="20"/>
	<path pointer-events="stroke" class="st4" d="M130.5,200.5l65,43.8"/>
	<path pointer-events="all" class="st5" d="M199.9,247.2l-7.8-1l3.4-1.9l0.5-3.9L199.9,247.2z"/>
	<path pointer-events="stroke" class="st4" d="M309.5,200.5l-68,43.9"/>
	<path pointer-events="all" class="st5" d="M237.1,247.2l4-6.7l0.4,3.9l3.4,2L237.1,247.2z"/>
	<rect x="42.2" y="259.9" pointer-events="all" class="st0" width="176" height="48.6"/>
	<text transform="matrix(1 0 0 1 74.4978 270.1665)"><tspan x="0" y="0" class="st2 st3">Gewinner der beiden</tspan><tspan x="0.7" y="14.4" class="st2 st3">Nachkommenknoten</tspan><tspan x="-27.7" y="28.8" class="st2 st3">bzw. der beiden oberen Knoten</tspan></text>
	<rect x="592.8" y="266.2" pointer-events="all" class="st0" width="176" height="48.6"/>
	<text transform="matrix(1 0 0 1 625.1179 276.523)"><tspan x="0" y="0" class="st2 st3">Gewinner der beiden</tspan><tspan x="0.7" y="14.4" class="st2 st3">Nachkommenknoten</tspan><tspan x="-27.7" y="28.8" class="st2 st3">bzw. der beiden oberen Knoten</tspan></text>
	<path pointer-events="stroke" class="st4" d="M680.8,200.5l-61.5,43.6"/>
	<path pointer-events="all" class="st5" d="M615.1,247.2l3.7-6.9l0.6,3.9l3.5,1.8L615.1,247.2z"/>
	<path pointer-events="stroke" class="st4" d="M494.2,200.5l79.1,44.2"/>
	<path pointer-events="all" class="st5" d="M577.8,247.3l-7.8-0.4l3.2-2.2l0.2-3.9L577.8,247.3z"/>
	<path pointer-events="stroke" class="st4" d="M236.2,283.2l155.9,72"/>
	<path pointer-events="all" class="st5" d="M396.8,357.4l-7.8,0.2l3.1-2.5l-0.1-3.9L396.8,357.4z"/>
	<path pointer-events="stroke" class="st4" d="M578.8,283.2l-140,71.7"/>
	<path pointer-events="all" class="st5" d="M434.2,357.3l4.6-6.3l0,3.9l3.2,2.3L434.2,357.3z"/>
	<rect x="594.5" y="270.5" pointer-events="all" class="st0" width="176" height="20"/>
	<path pointer-events="all" class="st4" d="M739.5,45.5v-5c0-3.3-3.3-5-10-5h-315c-6.7,0-10-1.7-10-5V28c0-1.7,0-0.8,0,2.5V33
		c0,1.7-3.3,2.5-10,2.5h-315c-6.7,0-10,1.7-10,5v5"/>
	<rect x="324.5" y="0.5" pointer-events="all" class="st0" width="160" height="20"/>
	<g>
		<text transform="matrix(1 0 0 1 330.9482 15)" class="st2 st3">Der gegebenen Turnierplan</text>
	</g>
	<rect x="189.4" y="175.5" pointer-events="all" class="st0" width="95.3" height="30.9"/>
	<text transform="matrix(1 0 0 1 211.4412 185.798)"><tspan x="0" y="0" class="st2 st3">Gewinner </tspan><tspan x="-20.7" y="14.4" class="st2 st3">zwischen 2 und 7</tspan></text>
	<rect x="379.5" y="175.5" pointer-events="all" class="st0" width="95.3" height="30.9"/>
	<text transform="matrix(1 0 0 1 401.4922 185.798)"><tspan x="0" y="0" class="st2 st3">Gewinner </tspan><tspan x="-20.7" y="14.4" class="st2 st3">zwischen 3 und 6</tspan></text>
	<rect x="562.8" y="175.5" pointer-events="all" class="st0" width="95.3" height="30.9"/>
	<text transform="matrix(1 0 0 1 584.8212 185.798)"><tspan x="0" y="0" class="st2 st3">Gewinner </tspan><tspan x="-20.7" y="14.4" class="st2 st3">zwischen 4 und 5</tspan></text>
	<text transform="matrix(1 0 0 1 284.1436 395.4955)" class="st2 st3">Sieger des Turniers</text>
</g>
<path class="st0" d="z"/>
</svg>
